<?xml version="1.0" encoding="utf-8"?>
<!-- Generator: Adobe Illustrator 26.3.1, SVG Export Plug-In . SVG Version: 6.00 Build 0)  -->
<svg version="1.1" id="Layer_1" xmlns="http://www.w3.org/2000/svg" xmlns:xlink="http://www.w3.org/1999/xlink" x="0px" y="0px"
	 viewBox="0 0 398.3 91.6" style="enable-background:new 0 0 398.3 91.6;" xml:space="preserve">
<style type="text/css">
	.st0{fill:#FBFBFB;}
</style>
<g>
	<path class="st0" d="M59.2,17.3L37.8,73.2c-0.3,0.8-0.8,1.4-1.4,1.9c-0.6,0.4-1.3,0.7-2.2,0.7H25c-0.8,0-1.5-0.2-2.2-0.7
		c-0.6-0.4-1.1-1.1-1.4-1.9L0,17.3h10.9l14.4,40.9c0.6,1.7,1.2,3.4,1.8,5.2c0.6,1.8,1.1,3.4,1.7,5h1.6c0.6-1.7,1.3-3.4,1.9-5.1
		c0.6-1.7,1.2-3.4,1.7-5.1l14.4-40.9H59.2z"/>
	<path class="st0" d="M94.1,15.8c8.8,0,15.2,1.6,19.1,4.8c4,3.2,5.9,8,5.9,14.3c0.1,5.2-1,9.3-3.2,12.2c-2.2,2.9-5.8,4.4-10.7,4.4
		H71.2v-7.9h31.4c2.6,0,4.4-0.9,5.2-2.7c0.8-1.8,1.2-3.8,1.2-5.9c-0.1-3.8-1.2-6.4-3.4-8c-2.2-1.6-5.8-2.4-11-2.4
		c-4.2,0-7.6,0.6-10,1.9c-2.4,1.2-4.2,3.4-5.2,6.5c-1,3.1-1.5,7.4-1.5,12.9c0,6.2,0.6,11,1.9,14.3c1.2,3.3,3.2,5.5,5.9,6.7
		c2.7,1.2,6.3,1.8,10.8,1.8c3.1,0,6.5-0.1,10.3-0.4c3.7-0.3,7.1-0.6,10-1l1.1,6.8c-1.8,0.7-4.1,1.3-6.8,1.8
		c-2.7,0.5-5.4,0.8-8.3,1.1c-2.8,0.2-5.4,0.4-7.6,0.4c-6.7,0-12.1-1-16.2-3.1c-4.1-2-7.1-5.3-8.9-9.8c-1.9-4.5-2.8-10.5-2.8-17.9
		c0-7.7,0.9-13.7,2.8-18.2c1.9-4.4,4.8-7.6,8.8-9.5C82.7,16.8,87.8,15.8,94.1,15.8z"/>
	<path class="st0" d="M143.2,17.3l0.8,11.2l0.7,1.8v45.5h-10.2V17.3H143.2z M170,15.8c10.6,0,15.8,5.4,15.8,16.1v43.8h-10.2V34.8
		c0-3.9-0.6-6.6-1.9-8.1c-1.3-1.5-3.4-2.2-6.5-2.2c-3.6,0-7.2,0.9-10.8,2.6c-3.6,1.8-7.9,4.2-12.8,7.2l-0.5-7.3
		c4.6-3.5,9.1-6.3,13.6-8.2C161.2,16.8,165.6,15.8,170,15.8z"/>
	<path class="st0" d="M237.5,17.3v8h-39.4v-7.4l11.5-0.6H237.5z M218.9,0v59.6c0,2.8,0.6,4.8,1.8,6c1.2,1.2,3.2,1.8,6.1,1.8h8.9
		l1.2,7.8c-1.3,0.3-2.8,0.6-4.4,0.8c-1.7,0.2-3.3,0.4-4.9,0.5c-1.6,0.1-2.9,0.2-3.8,0.2c-4.9,0-8.6-1.4-11.2-4.1
		c-2.6-2.7-3.8-6.6-3.8-11.8V0H218.9z"/>
	<path class="st0" d="M274.7,15.8c6.7,0,12.1,1,16.1,3c4,2,6.9,5.3,8.7,9.8c1.8,4.5,2.6,10.5,2.6,17.9c0,7.4-0.9,13.4-2.6,17.9
		c-1.8,4.5-4.7,7.8-8.7,9.8c-4,2-9.4,3-16.1,3c-6.6,0-12-1-16-3c-4-2-7-5.3-8.8-9.8c-1.8-4.5-2.7-10.5-2.7-17.9
		c0-7.4,0.9-13.4,2.7-17.9c1.8-4.5,4.7-7.8,8.8-9.8C262.7,16.8,268,15.8,274.7,15.8z M274.7,24.5c-4.2,0-7.6,0.7-10,2
		c-2.4,1.3-4.2,3.6-5.2,6.8c-1,3.2-1.6,7.6-1.6,13.3c0,5.7,0.5,10.1,1.6,13.3c1,3.2,2.8,5.5,5.2,6.8c2.4,1.3,5.8,2,10,2
		c4.2,0,7.6-0.7,10.1-2c2.5-1.3,4.2-3.6,5.3-6.8c1-3.2,1.6-7.6,1.6-13.3c0-5.7-0.5-10.1-1.6-13.3c-1-3.2-2.8-5.5-5.3-6.8
		C282.3,25.1,278.9,24.5,274.7,24.5z"/>
	<path class="st0" d="M326.8,17.3l0.8,11.2l0.7,1.8v45.5h-10.2V17.3H326.8z M353.6,15.8c10.6,0,15.8,5.4,15.8,16.1v43.8h-10.2V34.8
		c0-3.9-0.6-6.6-1.9-8.1c-1.3-1.5-3.4-2.2-6.5-2.2c-3.6,0-7.2,0.9-10.8,2.6c-3.6,1.8-7.9,4.2-12.8,7.2l-0.5-7.3
		c4.6-3.5,9.1-6.3,13.6-8.2C344.8,16.8,349.2,15.8,353.6,15.8z"/>
	<path class="st0" d="M394.4,22.9c1.4,0,2.4,0.3,3,0.8c0.6,0.6,0.8,1.6,0.8,3v6.5c0,1.4-0.3,2.4-0.8,3c-0.6,0.6-1.6,0.8-3,0.8h-3.4
		c-1.4,0-2.3-0.3-2.9-0.8c-0.6-0.6-0.9-1.6-0.9-3v-6.5c0-1.4,0.3-2.4,0.9-3c0.6-0.6,1.6-0.8,2.9-0.8H394.4z M394.3,61.6
		c1.4,0,2.4,0.3,2.9,0.8c0.5,0.6,0.8,1.6,0.8,3v7.7c0,2.2-0.2,4.4-0.5,6.6c-0.4,2.2-0.8,4.2-1.4,6.2c-0.6,2-1.3,3.9-2.2,5.7
		l-4.8-1.4c0.4-2.5,0.7-4.8,0.9-6.8c0.2-2.1,0.3-4.6,0.3-7.6c-1.9,0-2.9-1.1-2.9-3.4v-7c0.1-1.4,0.4-2.4,1.1-3
		c0.6-0.6,1.6-0.8,2.9-0.8H394.3z"/>
</g>
</svg>
